<?xml version="1.0" encoding="UTF-8" standalone="no"?>
<svg
   xmlns:dc="http://purl.org/dc/elements/1.1/"
   xmlns:cc="http://creativecommons.org/ns#"
   xmlns:rdf="http://www.w3.org/1999/02/22-rdf-syntax-ns#"
   xmlns:svg="http://www.w3.org/2000/svg"
   xmlns="http://www.w3.org/2000/svg"
   viewBox="0 0 1438.6667 728"
   height="728"
   width="1438.6667"
   xml:space="preserve"
   id="svg2"
   version="1.1"><metadata
     id="metadata8"><rdf:RDF><cc:Work
         rdf:about=""><dc:format>image/svg+xml</dc:format><dc:type
           rdf:resource="http://purl.org/dc/dcmitype/StillImage" /><dc:title></dc:title></cc:Work></rdf:RDF></metadata><defs
     id="defs6"><clipPath
       id="clipPath20"
       clipPathUnits="userSpaceOnUse"><path
         id="path18"
         d="M 36,36 H 1043 V 510 H 36 Z" /></clipPath></defs><g
     transform="matrix(1.3333333,0,0,-1.3333333,0,728)"
     id="g10"><g
       id="g12" /><g
       id="g14"><g
         clip-path="url(#clipPath20)"
         id="g16"><path
           id="path22"
           style="fill:#ffffff;fill-opacity:1;fill-rule:nonzero;stroke:#ffffff;stroke-width:1;stroke-linecap:butt;stroke-linejoin:miter;stroke-miterlimit:10;stroke-dasharray:none;stroke-opacity:1"
           d="M 36,36 V 510 H 1043 V 36 Z" /><path
           id="path24"
           style="fill:none;stroke:#000000;stroke-width:1;stroke-linecap:butt;stroke-linejoin:miter;stroke-miterlimit:10;stroke-dasharray:none;stroke-opacity:1"
           d="m 534,506 h -72 v -36 h 72 z" /><text
           id="text28"
           style="font-variant:normal;font-weight:normal;font-size:14.00024414px;font-family:'Times New Roman';-inkscape-font-specification:TimesNewRoman;writing-mode:lr-tb;fill:#000000;fill-opacity:1;fill-rule:nonzero;stroke:none"
           transform="matrix(1,0,0,-1,470,483.89844)"><tspan
             id="tspan26"
             y="0"
             x="0 8.2321434 14.994262 21.728378 27.720484 35.210613 38.948677 41.944733 49.43486">Exception</tspan></text>
<path
           id="path30"
           style="fill:none;stroke:#000000;stroke-width:1;stroke-linecap:butt;stroke-linejoin:miter;stroke-miterlimit:10;stroke-dasharray:none;stroke-opacity:1"
           d="m 377,434 h -78 v -36 h 78 z" /><text
           id="text34"
           style="font-variant:normal;font-weight:normal;font-size:14.00024414px;font-family:'Times New Roman';-inkscape-font-specification:TimesNewRoman;writing-mode:lr-tb;fill:#000000;fill-opacity:1;fill-rule:nonzero;stroke:none"
           transform="matrix(1,0,0,-1,306.5,411.89844)"><tspan
             id="tspan32"
             y="0"
             x="0 8.2461433 14.994262 21.000366 24.738432 30.716536 41.216717 49.44886 56.19698 59.193031">SystemExit</tspan></text>
<path
           id="path36"
           style="fill:none;stroke:#000000;stroke-width:1;stroke-linecap:butt;stroke-linejoin:miter;stroke-miterlimit:10;stroke-dasharray:none;stroke-opacity:1"
           d="M 462,472 C 436,460 403,445 377,434" /><path
           id="path38"
           style="fill:none;stroke:#000000;stroke-width:1;stroke-linecap:butt;stroke-linejoin:miter;stroke-miterlimit:10;stroke-dasharray:none;stroke-opacity:1"
           d="m 491,434 h -96 v -36 h 96 z" /><text
           id="text42"
           style="font-variant:normal;font-weight:normal;font-size:14.00024414px;font-family:'Times New Roman';-inkscape-font-specification:TimesNewRoman;writing-mode:lr-tb;fill:#000000;fill-opacity:1;fill-rule:nonzero;stroke:none"
           transform="matrix(1,0,0,-1,403,411.89844)"><tspan
             id="tspan40"
             y="0"
             x="0 8.2461433 11.984209 17.976313 24.72443 32.228561 38.206665 42.714745 50.218876 58.451019 62.945099 67.453178 74.957306">StandardError</tspan></text>
<path
           id="path44"
           style="fill:none;stroke:#000000;stroke-width:1;stroke-linecap:butt;stroke-linejoin:miter;stroke-miterlimit:10;stroke-dasharray:none;stroke-opacity:1"
           d="m 484,470 c -8,-11 -19,-25 -27,-36" /><path
           id="path46"
           style="fill:none;stroke:#000000;stroke-width:1;stroke-linecap:butt;stroke-linejoin:miter;stroke-miterlimit:10;stroke-dasharray:none;stroke-opacity:1"
           d="m 597,434 h -88 v -36 h 88 z" /><text
           id="text50"
           style="font-variant:normal;font-weight:normal;font-size:14.00024414px;font-family:'Times New Roman';-inkscape-font-specification:TimesNewRoman;writing-mode:lr-tb;fill:#000000;fill-opacity:1;fill-rule:nonzero;stroke:none"
           transform="matrix(1,0,0,-1,516.5,411.89844)"><tspan
             id="tspan48"
             y="0"
             x="0 8.2461433 11.984209 19.48834 26.99247 31.486549 35.224613 41.216717 45.710796 51.7029 55.440968 58.423019 65.927147">StopIteration</tspan></text>
<path
           id="path52"
           style="fill:none;stroke:#000000;stroke-width:1;stroke-linecap:butt;stroke-linejoin:miter;stroke-miterlimit:10;stroke-dasharray:none;stroke-opacity:1"
           d="m 512,470 c 8,-11 19,-25 27,-36" /><path
           id="path54"
           style="fill:none;stroke:#000000;stroke-width:1;stroke-linecap:butt;stroke-linejoin:miter;stroke-miterlimit:10;stroke-dasharray:none;stroke-opacity:1"
           d="m 677,434 h -62 v -36 h 62 z" /><text
           id="text58"
           style="font-variant:normal;font-weight:normal;font-size:14.00024414px;font-family:'Times New Roman';-inkscape-font-specification:TimesNewRoman;writing-mode:lr-tb;fill:#000000;fill-opacity:1;fill-rule:nonzero;stroke:none"
           transform="matrix(1,0,0,-1,622.5,411.89844)"><tspan
             id="tspan56"
             y="0"
             x="0 12.740222 18.732327 23.226404 29.974522 32.970573 39.718693">Warning</tspan></text>
<path
           id="path60"
           style="fill:none;stroke:#000000;stroke-width:1;stroke-linecap:butt;stroke-linejoin:miter;stroke-miterlimit:10;stroke-dasharray:none;stroke-opacity:1"
           d="m 534,470 c 25,-12 57,-27 81,-39" /><path
           id="path62"
           style="fill:none;stroke:#000000;stroke-width:1;stroke-linecap:butt;stroke-linejoin:miter;stroke-miterlimit:10;stroke-dasharray:none;stroke-opacity:1"
           d="M 232,362 H 94 V 184 h 138 z" /><text
           id="text84"
           style="font-variant:normal;font-weight:normal;font-size:14.00024414px;font-family:'Times New Roman';-inkscape-font-specification:TimesNewRoman;writing-mode:lr-tb;fill:#000000;fill-opacity:1;fill-rule:nonzero;stroke:none"
           transform="matrix(1,0,0,-1,121.5,345.39844)"><tspan
             id="tspan64"
             y="0"
             x="0 9.7441702 15.750275 21.742378 27.734484 32.228561 35.966625 38.962681 46.452808 53.200928 61.447071 65.941147 70.449226 77.939362">AssertionError</tspan><tspan
             id="tspan66"
             y="17.000006"
             x="2.4999955 12.244165 15.98223 19.720295 24.228374 27.210426 34.714558 41.462673 45.200741 51.192844 59.424988 63.933067 68.427147 75.931274">AttributeError</tspan><tspan
             id="tspan68"
             y="34.000011"
             x="7.5000005 11.994079 22.494263 29.984392 37.488522 41.982601 45.720665 53.966812 58.460888 62.968967 70.459099">ImportError</tspan><tspan
             id="tspan70"
             y="51.000019"
             x="-10.500001 -0.75583118 5.2362733 11.984391 19.488522 26.992653 32.970757 37.478836 44.968967 49.477043 56.225163 59.963226 65.95533 70.449409 74.943489 81.705605 89.19574">KeyboardInterrupt</tspan><tspan
             id="tspan72"
             y="68.000023"
             x="3.0000002 14.998209 20.990314 31.476496 38.980629 43.474705 50.222824 58.468967 62.963047 67.457123 74.961258">MemoryError</tspan><tspan
             id="tspan74"
             y="85.000031"
             x="-19.500002 -9.7558317 -2.2517014 1.4863639 5.980442 16.480625 23.970757 26.966808 32.944912 43.445095 49.423199 56.171318 59.909382 65.901489 73.405617 81.637764 86.145836 90.639915 98.144051">NotImplementedError</tspan><tspan
             id="tspan76"
             y="102.00004"
             x="6.0000005 14.246144 20.994263 27.000366 30.738432 36.716537 47.216721 55.448864 59.94294 64.451019 71.955147">SystemError</tspan><tspan
             id="tspan78"
             y="119.00004"
             x="12.500006 20.732149 27.494267 34.984398 40.976501 49.208645 53.716724 58.210804 65.714935">TypeError</tspan><tspan
             id="tspan80"
             y="136.00005"
             x="3.0000002 12.74417 19.492289 22.48834 29.222458 36.726589 44.230721 50.208824 58.454967 62.949043 67.457123 74.947258">UnicodeError</tspan><tspan
             id="tspan82"
             y="153.00006"
             x="12.000001 20.246145 26.238249 29.220301 35.968418 41.960522 50.206669 54.700745 59.194824 66.698952">ValueError</tspan></text>
<path
           id="path86"
           style="fill:none;stroke:#000000;stroke-width:1;stroke-linecap:butt;stroke-linejoin:miter;stroke-miterlimit:10;stroke-dasharray:none;stroke-opacity:1"
           d="m 395,401 c -3,-1 -6,-2 -9,-3 -64,-19 -89,-2 -145,-36 -3,-2 -6,-4 -9,-6" /><path
           id="path88"
           style="fill:none;stroke:#000000;stroke-width:1;stroke-linecap:butt;stroke-linejoin:miter;stroke-miterlimit:10;stroke-dasharray:none;stroke-opacity:1"
           d="m 328,291 h -78 v -36 h 78 z" /><text
           id="text92"
           style="font-variant:normal;font-weight:normal;font-size:14.00024414px;font-family:'Times New Roman';-inkscape-font-specification:TimesNewRoman;writing-mode:lr-tb;fill:#000000;fill-opacity:1;fill-rule:nonzero;stroke:none"
           transform="matrix(1,0,0,-1,258,268.89844)"><tspan
             id="tspan90"
             y="0"
             x="0 9.7441702 15.736275 26.222458 32.214561 40.446705 44.954784 49.44886 56.952991">NameError</tspan></text>
<path
           id="path94"
           style="fill:none;stroke:#000000;stroke-width:1;stroke-linecap:butt;stroke-linejoin:miter;stroke-miterlimit:10;stroke-dasharray:none;stroke-opacity:1"
           d="m 395,399 c -20,-9 -42,-21 -58,-37 -21,-20 -35,-51 -42,-71" /><path
           id="path96"
           style="fill:none;stroke:#000000;stroke-width:1;stroke-linecap:butt;stroke-linejoin:miter;stroke-miterlimit:10;stroke-dasharray:none;stroke-opacity:1"
           d="m 430,291 h -84 v -36 h 84 z" /><text
           id="text100"
           style="font-variant:normal;font-weight:normal;font-size:14.00024414px;font-family:'Times New Roman';-inkscape-font-specification:TimesNewRoman;writing-mode:lr-tb;fill:#000000;fill-opacity:1;fill-rule:nonzero;stroke:none"
           transform="matrix(1,0,0,-1,354,268.89844)"><tspan
             id="tspan98"
             y="0"
             x="0 8.2461433 14.994262 21.742378 25.480444 31.472549 38.220665 46.466808 50.960888 55.468967 62.959099">SyntaxError</tspan></text>
<path
           id="path102"
           style="fill:none;stroke:#000000;stroke-width:1;stroke-linecap:butt;stroke-linejoin:miter;stroke-miterlimit:10;stroke-dasharray:none;stroke-opacity:1"
           d="M 436,398 C 425,370 406,319 395,291" /><path
           id="path104"
           style="fill:none;stroke:#000000;stroke-width:1;stroke-linecap:butt;stroke-linejoin:miter;stroke-miterlimit:10;stroke-dasharray:none;stroke-opacity:1"
           d="M 550,291 H 448 v -36 h 102 z" /><text
           id="text108"
           style="font-variant:normal;font-weight:normal;font-size:14.00024414px;font-family:'Times New Roman';-inkscape-font-specification:TimesNewRoman;writing-mode:lr-tb;fill:#000000;fill-opacity:1;fill-rule:nonzero;stroke:none"
           transform="matrix(1,0,0,-1,455.5,268.89844)"><tspan
             id="tspan106"
             y="0"
             x="0 9.7441702 14.252249 17.234301 20.972366 27.720484 38.206665 44.198769 47.936836 50.932888 57.667004 65.899147 70.407227 74.901306 82.405434">ArithmeticError</tspan></text>
<path
           id="path110"
           style="fill:none;stroke:#000000;stroke-width:1;stroke-linecap:butt;stroke-linejoin:miter;stroke-miterlimit:10;stroke-dasharray:none;stroke-opacity:1"
           d="m 450,398 c 11,-28 31,-79 42,-107" /><path
           id="path112"
           style="fill:none;stroke:#000000;stroke-width:1;stroke-linecap:butt;stroke-linejoin:miter;stroke-miterlimit:10;stroke-dasharray:none;stroke-opacity:1"
           d="m 783,291 h -90 v -36 h 90 z" /><text
           id="text116"
           style="font-variant:normal;font-weight:normal;font-size:14.00024414px;font-family:'Times New Roman';-inkscape-font-specification:TimesNewRoman;writing-mode:lr-tb;fill:#000000;fill-opacity:1;fill-rule:nonzero;stroke:none"
           transform="matrix(1,0,0,-1,701,268.89844)"><tspan
             id="tspan114"
             y="0"
             x="0 8.2321434 15.736275 23.240404 29.988523 36.736641 44.240772 52.472916 56.980991 61.475071 68.979202">LookupError</tspan></text>
<path
           id="path118"
           style="fill:none;stroke:#000000;stroke-width:1;stroke-linecap:butt;stroke-linejoin:miter;stroke-miterlimit:10;stroke-dasharray:none;stroke-opacity:1"
           d="m 482,398 c 22,-10 51,-24 77,-36 50,-24 107,-53 143,-71" /><path
           id="path120"
           style="fill:none;stroke:#000000;stroke-width:1;stroke-linecap:butt;stroke-linejoin:miter;stroke-miterlimit:10;stroke-dasharray:none;stroke-opacity:1"
           d="M 968,291 H 852 v -36 h 116 z" /><text
           id="text124"
           style="font-variant:normal;font-weight:normal;font-size:14.00024414px;font-family:'Times New Roman';-inkscape-font-specification:TimesNewRoman;writing-mode:lr-tb;fill:#000000;fill-opacity:1;fill-rule:nonzero;stroke:none"
           transform="matrix(1,0,0,-1,860,268.89844)"><tspan
             id="tspan122"
             y="0"
             x="0 8.2321434 14.994262 21.742378 24.72443 29.23251 36.722641 43.470757 53.97094 59.949043 66.697159 70.435226 78.681374 83.175453 87.683525 95.17366">EnvironmentError</tspan></text>
<path
           id="path126"
           style="fill:none;stroke:#000000;stroke-width:1;stroke-linecap:butt;stroke-linejoin:miter;stroke-miterlimit:10;stroke-dasharray:none;stroke-opacity:1"
           d="m 491,400 c 3,-1 6,-1 9,-2 127,-28 170,13 292,-36 40,-17 78,-50 100,-71" /><path
           id="path128"
           style="fill:none;stroke:#000000;stroke-width:1;stroke-linecap:butt;stroke-linejoin:miter;stroke-miterlimit:10;stroke-dasharray:none;stroke-opacity:1"
           d="M 168,148 H 40 v -36 h 128 z" /><text
           id="text132"
           style="font-variant:normal;font-weight:normal;font-size:14.00024414px;font-family:'Times New Roman';-inkscape-font-specification:TimesNewRoman;writing-mode:lr-tb;fill:#000000;fill-opacity:1;fill-rule:nonzero;stroke:none"
           transform="matrix(1,0,0,-1,47.5,125.89844)"><tspan
             id="tspan130"
             y="0"
             x="0 9.7441702 16.492287 23.996418 31.500549 38.248665 44.996784 52.500916 60.733059 68.23719 74.971306 80.963409 83.945465 92.191605 96.685684 101.19376 108.68389">UnboundLocalError</tspan></text>
<path
           id="path134"
           style="fill:none;stroke:#000000;stroke-width:1;stroke-linecap:butt;stroke-linejoin:miter;stroke-miterlimit:10;stroke-dasharray:none;stroke-opacity:1"
           d="m 283,255 c -7,-20 -21,-52 -42,-71 -21,-18 -48,-31 -73,-39" /><path
           id="path136"
           style="fill:none;stroke:#000000;stroke-width:1;stroke-linecap:butt;stroke-linejoin:miter;stroke-miterlimit:10;stroke-dasharray:none;stroke-opacity:1"
           d="M 294,148 H 186 v -36 h 108 z" /><text
           id="text140"
           style="font-variant:normal;font-weight:normal;font-size:14.00024414px;font-family:'Times New Roman';-inkscape-font-specification:TimesNewRoman;writing-mode:lr-tb;fill:#000000;fill-opacity:1;fill-rule:nonzero;stroke:none"
           transform="matrix(1,0,0,-1,194,125.89844)"><tspan
             id="tspan138"
             y="0"
             x="0 4.4940782 11.256196 18.746326 24.738432 31.486549 35.224613 41.216717 44.954784 47.936836 55.440968 62.189083 70.435226 74.929306 79.423386 86.927513">IndentationError</tspan></text>
<path
           id="path142"
           style="fill:none;stroke:#000000;stroke-width:1;stroke-linecap:butt;stroke-linejoin:miter;stroke-miterlimit:10;stroke-dasharray:none;stroke-opacity:1"
           d="m 381,255 c -8,-20 -23,-50 -44,-71 -15,-15 -35,-27 -53,-36" /><path
           id="path144"
           style="fill:none;stroke:#000000;stroke-width:1;stroke-linecap:butt;stroke-linejoin:miter;stroke-miterlimit:10;stroke-dasharray:none;stroke-opacity:1"
           d="M 432,148 H 312 v -36 h 120 z" /><text
           id="text148"
           style="font-variant:normal;font-weight:normal;font-size:14.00024414px;font-family:'Times New Roman';-inkscape-font-specification:TimesNewRoman;writing-mode:lr-tb;fill:#000000;fill-opacity:1;fill-rule:nonzero;stroke:none"
           transform="matrix(1,0,0,-1,320,125.89844)"><tspan
             id="tspan146"
             y="0"
             x="0 8.2461433 11.242196 18.732327 24.72443 28.462496 31.444548 38.206665 44.954784 53.200928 60.705059 63.687111 70.435226 74.173294 82.419434 86.913513 91.407593 98.91172">FloatingPointError</tspan></text>
<path
           id="path150"
           style="fill:none;stroke:#000000;stroke-width:1;stroke-linecap:butt;stroke-linejoin:miter;stroke-miterlimit:10;stroke-dasharray:none;stroke-opacity:1"
           d="M 489,255 C 478,236 459,206 439,184 427,170 411,158 398,148" /><path
           id="path152"
           style="fill:none;stroke:#000000;stroke-width:1;stroke-linecap:butt;stroke-linejoin:miter;stroke-miterlimit:10;stroke-dasharray:none;stroke-opacity:1"
           d="m 548,148 h -98 v -36 h 98 z" /><text
           id="text156"
           style="font-variant:normal;font-weight:normal;font-size:14.00024414px;font-family:'Times New Roman';-inkscape-font-specification:TimesNewRoman;writing-mode:lr-tb;fill:#000000;fill-opacity:1;fill-rule:nonzero;stroke:none"
           transform="matrix(1,0,0,-1,458,125.89844)"><tspan
             id="tspan154"
             y="0"
             x="0 10.500183 17.248301 23.240404 27.734484 32.242561 35.224613 42.728745 52.472916 60.705059 65.213135 69.707214 77.211342">OverflowError</tspan></text>
<path
           id="path158"
           style="fill:none;stroke:#000000;stroke-width:1;stroke-linecap:butt;stroke-linejoin:miter;stroke-miterlimit:10;stroke-dasharray:none;stroke-opacity:1"
           d="m 499,255 c 0,-28 0,-79 0,-107" /><path
           id="path160"
           style="fill:none;stroke:#000000;stroke-width:1;stroke-linecap:butt;stroke-linejoin:miter;stroke-miterlimit:10;stroke-dasharray:none;stroke-opacity:1"
           d="M 682,148 H 566 v -36 h 116 z" /><text
           id="text164"
           style="font-variant:normal;font-weight:normal;font-size:14.00024414px;font-family:'Times New Roman';-inkscape-font-specification:TimesNewRoman;writing-mode:lr-tb;fill:#000000;fill-opacity:1;fill-rule:nonzero;stroke:none"
           transform="matrix(1,0,0,-1,573.5,125.89844)"><tspan
             id="tspan162"
             y="0"
             x="0 8.2321434 14.224248 18.732327 26.222458 35.980629 38.962681 45.710796 48.706848 54.698952 57.681004 65.185135 71.93325 80.179398 84.673477 89.181557 96.671684">ZeroDivisionError</tspan></text>
<path
           id="path166"
           style="fill:none;stroke:#000000;stroke-width:1;stroke-linecap:butt;stroke-linejoin:miter;stroke-miterlimit:10;stroke-dasharray:none;stroke-opacity:1"
           d="m 515,255 c 23,-28 69,-79 93,-107" /><path
           id="path168"
           style="fill:none;stroke:#000000;stroke-width:1;stroke-linecap:butt;stroke-linejoin:miter;stroke-miterlimit:10;stroke-dasharray:none;stroke-opacity:1"
           d="m 776,148 h -76 v -36 h 76 z" /><text
           id="text172"
           style="font-variant:normal;font-weight:normal;font-size:14.00024414px;font-family:'Times New Roman';-inkscape-font-specification:TimesNewRoman;writing-mode:lr-tb;fill:#000000;fill-opacity:1;fill-rule:nonzero;stroke:none"
           transform="matrix(1,0,0,-1,707.5,125.89844)"><tspan
             id="tspan170"
             y="0"
             x="0 4.4940782 11.256196 18.746326 24.738432 31.486549 39.732693 44.226772 48.720848 56.224979">IndexError</tspan></text>
<path
           id="path174"
           style="fill:none;stroke:#000000;stroke-width:1;stroke-linecap:butt;stroke-linejoin:miter;stroke-miterlimit:10;stroke-dasharray:none;stroke-opacity:1"
           d="m 738,255 c 0,-28 0,-79 0,-107" /><path
           id="path176"
           style="fill:none;stroke:#000000;stroke-width:1;stroke-linecap:butt;stroke-linejoin:miter;stroke-miterlimit:10;stroke-dasharray:none;stroke-opacity:1"
           d="m 862,148 h -68 v -36 h 68 z" /><text
           id="text180"
           style="font-variant:normal;font-weight:normal;font-size:14.00024414px;font-family:'Times New Roman';-inkscape-font-specification:TimesNewRoman;writing-mode:lr-tb;fill:#000000;fill-opacity:1;fill-rule:nonzero;stroke:none"
           transform="matrix(1,0,0,-1,802,125.89844)"><tspan
             id="tspan178"
             y="0"
             x="0 9.7441702 15.736275 22.484392 30.730536 35.224613 39.718693 47.222824">KeyError</tspan></text>
<path
           id="path182"
           style="fill:none;stroke:#000000;stroke-width:1;stroke-linecap:butt;stroke-linejoin:miter;stroke-miterlimit:10;stroke-dasharray:none;stroke-opacity:1"
           d="m 749,255 c 18,-28 50,-79 67,-107" /><path
           id="path184"
           style="fill:none;stroke:#000000;stroke-width:1;stroke-linecap:butt;stroke-linejoin:miter;stroke-miterlimit:10;stroke-dasharray:none;stroke-opacity:1"
           d="m 940,148 h -60 v -36 h 60 z" /><text
           id="text188"
           style="font-variant:normal;font-weight:normal;font-size:14.00024414px;font-family:'Times New Roman';-inkscape-font-specification:TimesNewRoman;writing-mode:lr-tb;fill:#000000;fill-opacity:1;fill-rule:nonzero;stroke:none"
           transform="matrix(1,0,0,-1,888,125.89844)"><tspan
             id="tspan186"
             y="0"
             x="0 4.4940782 14.994262 23.240404 27.734484 32.242561 39.732693">IOError</tspan></text>
<path
           id="path190"
           style="fill:none;stroke:#000000;stroke-width:1;stroke-linecap:butt;stroke-linejoin:miter;stroke-miterlimit:10;stroke-dasharray:none;stroke-opacity:1"
           d="m 910,255 c 0,-28 0,-79 0,-107" /><path
           id="path192"
           style="fill:none;stroke:#000000;stroke-width:1;stroke-linecap:butt;stroke-linejoin:miter;stroke-miterlimit:10;stroke-dasharray:none;stroke-opacity:1"
           d="m 1022,148 h -64 v -36 h 64 z" /><text
           id="text196"
           style="font-variant:normal;font-weight:normal;font-size:14.00024414px;font-family:'Times New Roman';-inkscape-font-specification:TimesNewRoman;writing-mode:lr-tb;fill:#000000;fill-opacity:1;fill-rule:nonzero;stroke:none"
           transform="matrix(1,0,0,-1,966,125.89844)"><tspan
             id="tspan194"
             y="0"
             x="0 10.500183 18.746326 26.97847 31.486549 35.980629 43.484756">OSError</tspan></text>
<path
           id="path198"
           style="fill:none;stroke:#000000;stroke-width:1;stroke-linecap:butt;stroke-linejoin:miter;stroke-miterlimit:10;stroke-dasharray:none;stroke-opacity:1"
           d="m 920,255 c 16,-28 44,-79 60,-107" /><path
           id="path200"
           style="fill:none;stroke:#000000;stroke-width:1;stroke-linecap:butt;stroke-linejoin:miter;stroke-miterlimit:10;stroke-dasharray:none;stroke-opacity:1"
           d="M 1039,76 H 941 V 40 h 98 z" /><text
           id="text204"
           style="font-variant:normal;font-weight:normal;font-size:14.00024414px;font-family:'Times New Roman';-inkscape-font-specification:TimesNewRoman;writing-mode:lr-tb;fill:#000000;fill-opacity:1;fill-rule:nonzero;stroke:none"
           transform="matrix(1,0,0,-1,948.5,53.898438)"><tspan
             id="tspan202"
             y="0"
             x="0 12.740222 15.722274 22.470392 29.974522 37.478653 47.222824 53.214928 61.461071 65.955147 70.463226 77.953362">WindowsError</tspan></text>
<path
           id="path206"
           style="fill:none;stroke:#000000;stroke-width:1;stroke-linecap:butt;stroke-linejoin:miter;stroke-miterlimit:10;stroke-dasharray:none;stroke-opacity:1"
           d="m 990,112 c 0,-11 0,-25 0,-36" /></g></g><g
       id="g208" /></g></svg>