<?xml version="1.0" encoding="UTF-8" standalone="no"?>
<svg
   xmlns:dc="http://purl.org/dc/elements/1.1/"
   xmlns:cc="http://creativecommons.org/ns#"
   xmlns:rdf="http://www.w3.org/1999/02/22-rdf-syntax-ns#"
   xmlns:svg="http://www.w3.org/2000/svg"
   xmlns="http://www.w3.org/2000/svg"
   viewBox="0 0 438.66666 280"
   height="280"
   width="438.66666"
   xml:space="preserve"
   id="svg2"
   version="1.1"><metadata
     id="metadata8"><rdf:RDF><cc:Work
         rdf:about=""><dc:format>image/svg+xml</dc:format><dc:type
           rdf:resource="http://purl.org/dc/dcmitype/StillImage" /><dc:title></dc:title></cc:Work></rdf:RDF></metadata><defs
     id="defs6"><clipPath
       id="clipPath30"
       clipPathUnits="userSpaceOnUse"><path
         style="clip-rule:evenodd"
         id="path28"
         d="M 0,2100 V 0 h 3290 v 2100 z m 2213.71,-460.25 -144.25,82.51 -19.52,-34.01 144.24,-82.52 0.64,0.63 -56.07,53.54 74.96,-20.78 z" /></clipPath><clipPath
       id="clipPath44"
       clipPathUnits="userSpaceOnUse"><path
         style="clip-rule:evenodd"
         id="path42"
         d="M 0,2100 V 0 h 3290 v 2100 z m 804.625,-1371.719 121.57,114.012 -27.086,28.344 -120.941,-114.012 0.633,-0.629 68.027,37.793 z" /></clipPath><clipPath
       id="clipPath58"
       clipPathUnits="userSpaceOnUse"><path
         style="clip-rule:evenodd"
         id="path56"
         d="M 0,2100 V 0 H 3290 V 2100 Z M 1123.98,763.555 999.895,874.418 967.77,838.512 l 124.72,-110.86 3.15,3.778 -43.46,64.25 68.66,-35.903 z" /></clipPath><clipPath
       id="clipPath72"
       clipPathUnits="userSpaceOnUse"><path
         style="clip-rule:evenodd"
         id="path70"
         d="M 0,2100 V 0 h 3290 v 2100 z m 1792.31,-484.19 150.55,71.18 -16.38,35.27 -150.55,-71.17 v -0.64 l 76.85,15.12 -60.47,-49.13 z" /></clipPath></defs><g
     transform="matrix(1.3333333,0,0,-1.3333333,0,280)"
     id="g10"><g
       transform="scale(0.1)"
       id="g12"><path
         id="path14"
         style="fill:none;stroke:#000000;stroke-width:28.34550095;stroke-linecap:butt;stroke-linejoin:miter;stroke-miterlimit:10;stroke-dasharray:none;stroke-opacity:1"
         d="m 1586.33,1700.21 h 765.328 v 368.492 H 1586.33 Z" /><path
         id="path16"
         style="fill:none;stroke:#000000;stroke-width:28.34550095;stroke-linecap:butt;stroke-linejoin:miter;stroke-miterlimit:10;stroke-dasharray:none;stroke-opacity:1"
         d="m 2493.39,878.195 h 765.328 v 368.492 H 2493.39 Z" /><path
         id="path18"
         style="fill:none;stroke:#000000;stroke-width:28.34550095;stroke-linecap:butt;stroke-linejoin:miter;stroke-miterlimit:10;stroke-dasharray:none;stroke-opacity:1"
         d="m 509.203,849.852 h 765.328 v 368.492 H 509.203 Z" /><path
         id="path20"
         style="fill:none;stroke:#000000;stroke-width:28.34550095;stroke-linecap:butt;stroke-linejoin:miter;stroke-miterlimit:10;stroke-dasharray:none;stroke-opacity:1"
         d="m 27.3281,27.832 h 765.328 V 396.324 H 27.3281 Z" /><path
         id="path22"
         style="fill:none;stroke:#000000;stroke-width:28.34550095;stroke-linecap:butt;stroke-linejoin:miter;stroke-miterlimit:10;stroke-dasharray:none;stroke-opacity:1"
         d="m 1161.15,27.832 h 765.328 V 396.324 H 1161.15 Z" /><g
         id="g24"><g
           clip-path="url(#clipPath30)"
           id="g26"><path
             id="path32"
             style="fill:none;stroke:#000000;stroke-width:28.34550095;stroke-linecap:butt;stroke-linejoin:miter;stroke-miterlimit:10;stroke-dasharray:none;stroke-opacity:1"
             d="m 2068.2,1700.21 793.68,-453.52" /></g></g><path
         id="path34"
         style="fill:#000000;fill-opacity:1;fill-rule:evenodd;stroke:none"
         d="m 2213.71,1639.12 -74.96,20.78 56.07,-53.54 18.89,32.76" /><path
         id="path36"
         style="fill:none;stroke:#000000;stroke-width:37.79399872;stroke-linecap:butt;stroke-linejoin:miter;stroke-miterlimit:10;stroke-dasharray:none;stroke-opacity:1"
         d="m 2213.71,1639.12 -74.96,20.78 56.07,-53.54 z" /><g
         id="g38"><g
           clip-path="url(#clipPath44)"
           id="g40"><path
             id="path46"
             style="fill:none;stroke:#000000;stroke-width:28.34550095;stroke-linecap:butt;stroke-linejoin:miter;stroke-miterlimit:10;stroke-dasharray:none;stroke-opacity:1"
             d="M 906.039,849.852 424.164,396.324" /></g></g><path
         id="path48"
         style="fill:#000000;fill-opacity:1;fill-rule:evenodd;stroke:none"
         d="m 804.625,728.281 42.203,65.508 -68.027,-37.793 25.824,-27.715" /><path
         id="path50"
         style="fill:none;stroke:#000000;stroke-width:37.79399872;stroke-linecap:butt;stroke-linejoin:miter;stroke-miterlimit:10;stroke-dasharray:none;stroke-opacity:1"
         d="m 804.625,728.281 42.203,65.508 -68.027,-37.793 z" /><g
         id="g52"><g
           clip-path="url(#clipPath58)"
           id="g54"><path
             id="path60"
             style="fill:none;stroke:#000000;stroke-width:37.79399872;stroke-linecap:butt;stroke-linejoin:miter;stroke-miterlimit:10;stroke-dasharray:none;stroke-opacity:1"
             d="M 991.074,849.852 1501.29,396.324" /></g></g><path
         id="path62"
         style="fill:#000000;fill-opacity:1;fill-rule:evenodd;stroke:none"
         d="m 1120.84,759.777 -68.66,35.903 43.46,-64.25 25.2,28.347" /><path
         id="path64"
         style="fill:none;stroke:#000000;stroke-width:37.79399872;stroke-linecap:butt;stroke-linejoin:miter;stroke-miterlimit:10;stroke-dasharray:none;stroke-opacity:1"
         d="m 1120.84,759.777 -68.66,35.903 43.46,-64.25 z" /><g
         id="g66"><g
           clip-path="url(#clipPath72)"
           id="g68"><path
             id="path74"
             style="fill:none;stroke:#000000;stroke-width:28.34550095;stroke-linecap:butt;stroke-linejoin:miter;stroke-miterlimit:10;stroke-dasharray:none;stroke-opacity:1"
             d="M 1926.48,1700.21 906.039,1218.34" /></g></g><path
         id="path76"
         style="fill:#000000;fill-opacity:1;fill-rule:evenodd;stroke:none"
         d="m 1792.31,1616.44 60.47,49.13 -76.85,-15.12 16.38,-34.01" /><path
         id="path78"
         style="fill:none;stroke:#000000;stroke-width:37.79399872;stroke-linecap:butt;stroke-linejoin:miter;stroke-miterlimit:10;stroke-dasharray:none;stroke-opacity:1"
         d="m 1792.31,1616.44 60.47,49.13 -76.85,-15.12 z" /><g
         transform="scale(10)"
         id="g80"><text
           id="text92"
           style="font-variant:normal;font-weight:normal;font-size:19.9993px;font-family:'Times New Roman';-inkscape-font-specification:Times-Roman;writing-mode:lr-tb;fill:#000000;fill-opacity:1;fill-rule:nonzero;stroke:none"
           transform="matrix(1,0,0,-1,33.9129,14.1215)"><tspan
             id="tspan82"
             y="0"
             x="0">C</tspan><tspan
             id="tspan84"
             y="-85.036301"
             x="48.1875">B</tspan><tspan
             id="tspan86"
             y="0"
             x="113.382">D</tspan><tspan
             id="tspan88"
             y="-85.036301"
             x="246.606">E</tspan><tspan
             id="tspan90"
             y="-167.2383"
             x="133.224 143.22365 153.2233 158.78311 167.6628 176.54248">object</tspan></text>
</g></g></g></svg>